<?xml version="1.0" encoding="utf-8"?>
<!-- Generator: Adobe Illustrator 18.1.1, SVG Export Plug-In . SVG Version: 6.00 Build 0)  -->
<svg version="1.1" xmlns="http://www.w3.org/2000/svg" xmlns:xlink="http://www.w3.org/1999/xlink" x="0px" y="0px"
	 viewBox="-267 387.8900146 60 66" enable-background="new -267 387.8900146 60 66" xml:space="preserve">
<g id="outline">
	<path id="Fill-1_1_" d="M-208.7421265,391.5451965c-0.3692322-0.0919189-0.9713593-0.136261-3.3923035-0.136261
		c-0.7817841,0-1.6704254,0.0046082-2.6151581,0.0092163c-1.0665131,0.0053406-2.2050934,0.0110168-3.3415375,0.0110168
		c-1.8269806,0-4.3853149-0.0131226-6.2059174-0.1174622c-2.9158478-2.1187439-6.2747955-3.2496033-9.9915924-3.3617249
		c-8.0545654-0.2466125-15.1860352,3.2336426-19.047699,9.216217c-1.3050842,1.240509-3.7604675,2.6197815-4.4243774,2.7670288
		c-1.1130066,0.2473145-1.8340759,1.2217102-1.7137146,2.3163757c0.0866089,0.7891846,0.6479187,1.6759033,1.9004517,2.0882263
		c-0.1445007,0.1419373-0.2822266,0.2909851-0.4104004,0.445343c-0.848877,1.0222778-1.2039185,2.1843872-0.9997559,3.2726746
		c0.0411682,0.2182312,0.0983276,0.4268494,0.1711121,0.6252136c-1.8362122,3.1239929-2.8022461,6.6702576-2.8022461,10.3162231
		c0,0.9208069,0.0621338,1.8370056,0.1853333,2.7443237c-0.2890015-0.0500183-0.5794067-0.0755615-0.8698425-0.0755615
		c-1.3966675,0-2.6914673,0.6053467-3.5513611,1.6606445c-0.949707,1.1659851-1.2827148,2.7258606-0.9376221,4.3921814
		c0.7026062,3.394043,5.8469849,9.1158142,9.9490051,10.1001282c0.4040222,0.0965271,0.789917,0.1458435,1.1467285,0.1458435
		c1.0973969,0,2.0037994-0.4623718,2.5530243-1.3019104c0.1743164-0.2668457,0.300354-0.5499878,0.3876953-0.8395386
		c2.799408,1.9295959,6.0355072,3.1246948,9.4636688,3.4717407c0.7427216,2.4221191,2.7369232,2.8259277,3.9812927,2.8259277
		c1.8759766,0,3.4966888-0.7621765,4.6523132-2.1673584c0.1043701,0.0014343,0.2091064,0.0025024,0.314209,0.0025024
		c0.7931213,0,1.7786865-0.0542908,2.9062653-0.2281799c-3.6092377,4.0480042-8.8231964,6.377533-12.6624908,6.3782349h-0.0010681
		c-1.6182251,0-3.7920685-0.4126892-4.9601135-2.3763428c-1.5454407-2.5981445-4.0228424-4.2123108-6.4647369-4.2123108
		c-2.5650787,0-4.3473358,1.8100281-4.4343109,4.5036316c-0.0472107,1.4580078,0.7171631,3.0437927,2.2107544,4.5852051
		c2.512558,2.5935364,7.3846283,5.2104492,12.6063995,5.2104492c1.1538544,0,2.2846222-0.1291504,3.3607178-0.3839111
		c9.2534943-2.1904297,17.5444946-9.5952148,19.9562073-17.7394714c8.832428-6.7440491,8.132309-25.2843933,5.2054443-33.5510559
		c-0.2030792-0.5737915-0.4224854-1.1358337-0.6578674-1.6844177c0.3560944,0.0411682,0.7082825,0.0617371,1.0547943,0.0617371
		c0.8091125,0,1.5972748-0.1135559,2.3432007-0.3370972c4.5908813-1.3764343,6.6649628-4.7825317,6.6216431-6.6514587
		C-207.2787018,392.5447693-207.8623657,391.7651978-208.7421265,391.5451965"/>
</g>
<g id="tail">
	<path id="Fill-14_5_" d="M-221.125,422.9675293l-4.78125,1.15625c0,0,0.40625,7.5625-2.9145813,13.9169922
		c-3.3305359,5.1728516-9.5957336,9.0238953-15.0674591,9.1278687c-1.9622345,0.042572-4.6217651-0.4346619-6.085556-2.8947754
		c-1.7776337-2.9880981-4.615036-4.0614624-6.497406-3.5757141c-1.482605,0.3814697-2.3648376,1.6056519-2.4212952,3.3571472
		c-0.0472107,1.4590759,1.0498352,3.2141113,3.0092316,4.8147888c2.5760956,2.1045532,6.6383514,3.8769836,10.7801208,3.8769836
		c1.0281677,0,2.0616608-0.1092834,3.0784607-0.349884c9.03302-2.1386108,17.1017761-9.4145813,19.2738495-17.3459167
		C-220.9375,428.4362793-221.125,422.9675293-221.125,422.9675293z M-224.1482849,435.9553833
		c-2.5157471,7.1081238-9.9003601,13.4597473-18.1221313,15.4056702l0,0
		c-4.7559814,1.1262817-9.9259186-0.8530273-12.9386902-3.3148804c-1.6757507-1.368988-2.6549072-2.8479309-2.6190491-3.9564514
		c0.0408325-1.2635803,0.6170349-2.1017151,1.622467-2.3607483c1.5003662-0.3860779,3.8066406,0.5510559,5.3165741,3.0892334
		c1.3459167,2.262085,3.8233185,3.4671021,7.0210724,3.4146118c6.1909943-0.1174622,13.3263855-4.7328491,16.6111145-10.739563"/>
	<path id="Fill-10_3_" fill="#FF8800" d="M-224.1482849,435.9553833
		c-2.5157471,7.1081238-9.9003601,13.4597473-18.1221313,15.4056702c-4.7559814,1.1262817-9.9259186-0.8530273-12.9386902-3.3148804
		c-1.6757507-1.368988-2.6549072-2.8479309-2.6190491-3.9564514c0.0408325-1.2635803,0.6170349-2.1017151,1.622467-2.3607483
		c1.5003662-0.3860779,3.8066406,0.5510559,5.3165741,3.0892334c1.3459167,2.262085,3.8233185,3.4671021,7.0210724,3.4146118
		c6.1909943-0.1174622,13.3263855-4.7328491,16.6111145-10.739563c2.8819275-6.5257263,2.5381775-12.6507263,2.5381775-12.6507263
		l2.5-0.625C-222.21875,424.2175293-222.2965698,430.6932678-224.1482849,435.9553833"/>
	<path id="Fill-10_2_" fill="#FF8800" d="M-224.1482849,435.9553833"/>
</g>
<g id="body">
	<g id="Fill-13_6_">
		<path fill="#FFD200" d="M-234.3984375,438.3952637c-0.8935547-0.0419922-2.0317383-0.4863281-3.6079102-1.0996094
			c-1.6806641-0.6552734-3.7724609-1.4707031-6.3154297-2.0898438c-1.909668-0.4648438-4.1826172-0.7011719-6.7563477-0.7011719
			c-2.128418,0-3.6772461,0.1699219-3.6923828,0.171875l-0.3476562,0.0390625l-6.0356445-9.2753906l0.1484375-0.2919922
			c1.4902344-2.9287109,4.1333008-4.4760742,7.6425781-4.4760742c2.1713867,0,4.1162109,0.5834961,5.0576172,0.9199219
			c0.0825195-0.5419922,0.1333008-1.6513672-0.2114258-3.6640625c-3.6948242-2.5405273-8.5864258-8.4697266-8.7963867-8.7255859
			l-0.3344727-0.4072266l4.6704102-4.4448242l0.3916016,0.4179688c0.0058594,0.0063477,0.4541016,0.4794922,1.5678711,1.3359375
			c-0.3188477-0.824707-0.65625-1.5356445-0.8061523-1.8413086c-0.4897461-0.2836914-1.0410156-0.8476562-1.2998047-1.6987305
			c-0.3764648-1.2392578-0.0288086-2.7612305,1.0058594-4.4023438c3.4213867-5.4238281,9.7875977-8.6616211,17.0297852-8.6616211
			c0.25,0,0.5009766,0.0039062,0.7529297,0.0112305c3.0410156,0.0917969,5.8457031,0.9462891,8.3349609,2.5400391
			l0.7333984,0.4697266l-0.7265625,0.4804688c-0.0566406,0.0375977-0.0888672,0.0776367-0.109375,0.1342773
			c-0.1132812,0.3129883,0.3671875,0.9667969,1.2548828,1.7060547l0.1328125,0.112793
			c1.40625,1.1982422,2.8076172,2.140625,4.1630859,2.8007812l0.1484375,0.0722656l0.0859375,0.1401367
			c0.8798828,1.4277344,1.6289062,3.0073242,2.2255859,4.6958008c2.7626953,7.7998047,3.4648438,26.1982422-5.1015625,32.09375
			c-4.3681641,3.0058594-8.4785156,3.6376953-11.1572266,3.6376953H-234.3984375z"/>
		<path fill="#231815" d="M-235.0883942,390.0671387c0.2440033,0,0.4893951,0.0036926,0.7354889,0.0111389
			c2.9662781,0.0894165,5.6819,0.9364319,8.0474548,2.450531c-0.1547852,0.1022034-0.2669678,0.2388-0.3301697,0.4137268
			c-0.0788269,0.2182312-0.3195343,0.8821411,1.4254456,2.3348389l0.1274567,0.1085815
			c1.5781097,1.3444824,3.0099335,2.2592773,4.2830811,2.8791809c0.8470917,1.3757019,1.5784607,2.9061279,2.1738434,4.5877075
			c2.7127686,7.6609497,3.4459076,25.7020264-4.8887634,31.4376221c-4.3740692,3.0100403-8.4860077,3.5371094-10.8372345,3.5371094
			c-0.0150299,0-0.0302582,0-0.0451202-0.000061c-1.6469421-0.0774841-4.9155884-1.9849854-9.7905884-3.1724854
			c-2.335144-0.5688171-4.8757019-0.7170105-6.8892212-0.71698c-2.1900482,0-3.7566071,0.175293-3.7566071,0.175293
			L-260.5,425.4050293c1.6766663-3.2944946,4.5568695-4.1662903,7.1372833-4.1661072
			c2.902359,0.0002441,5.4252167,1.1036072,5.4252167,1.1036072s0.625-0.9375-0.0625-4.75c-3.6875-2.4375-8.875-8.75-8.875-8.75
			l3.875-3.6875c0,0,0.8125,0.875,3.0625,2.4375c-0.4375-1.75-1.4610748-3.7482605-1.4610748-3.7482605
			c-0.3962097-0.1759949-0.9436798-0.6600037-1.182251-1.4449158c-0.3276978-1.0776367-0.0014191-2.4380798,0.9426117-3.9351501
			C-248.3001404,393.1728516-242.15271,390.0670471-235.0883942,390.0671387 M-235.0883789,388.9332581h-0.0000153
			c-7.4374542-0.0000916-13.9828033,3.336731-17.5088043,8.9259644c-1.1252289,1.7843933-1.4946594,3.4683533-1.0684357,4.8699951
			c0.1195068,0.393219,0.2932587,0.7356262,0.4959564,1.0274353l-0.611969,0.5769958l-3.875,3.6875l-0.7637024,0.7267456
			l0.669342,0.8145142c0.2084961,0.2536926,4.9788818,6.0360107,8.7142029,8.6933594
			c0.1916199,1.1860046,0.2346954,2.0144348,0.2223358,2.5716553c-1.0920868-0.3345947-2.746048-0.722229-4.5481567-0.7223511
			c-3.7368927-0.0003052-6.5543976,1.6545715-8.1479034,4.785675l-0.2970581,0.5837097l0.3572388,0.5489807l5.6666565,8.7083435
			l0.3811188,0.5856934l0.694931-0.0772705c0.0151367-0.0016785,1.5382385-0.1683044,3.6309357-0.1683044
			c2.4922791,0,4.7817383,0.2367554,6.6208496,0.6847534c2.5059967,0.6104431,4.5780487,1.4178467,6.2429962,2.0665894
			c1.6264648,0.6337585,2.8016052,1.0916443,3.7626343,1.1368713l0.025116,0.0011902l0.0251465,0.000061
			c2.8079987,0.000061,7.0399628-0.6482544,11.528183-3.7368164c5.0389099-3.4675903,6.6282654-10.5256348,7.0742798-15.835968
			c0.4926147-5.865387-0.1980133-12.5046082-1.7594757-16.9142151c-0.611145-1.7261353-1.3773041-3.3423462-2.2771606-4.8037415
			l-0.172821-0.2806396l-0.2963104-0.1442871c-1.3134766-0.6395264-2.674118-1.5556335-4.0441284-2.7228394l-0.1275024-0.1086121
			c-0.6419067-0.5344543-0.90802-0.8838196-1.0160522-1.0644836l1.2658081-0.8356628l-1.4690399-0.9402771
			c-2.5772095-1.6495667-5.4789276-2.5340576-8.6245422-2.6288757c-0.2574463-0.007782-0.5142975-0.0116882-0.7696686-0.0116882
			H-235.0883789L-235.0883789,388.9332581z"/>
	</g>
</g>
<g id="WordPress-logo">
	<ellipse id="circle_2_" cx="-241.515625" cy="419.1341858" rx="19.652092" ry="19.7349644"/>
	<ellipse id="circle" fill="#005683" cx="-241.515625" cy="419.1341858" rx="18.526041" ry="18.604166"/>
	<path id="circle_1_" fill="#00709C" d="M-247.572998,403.1341553c-1.5612183,0-3.0625,0.25-4.4728394,0.7023926
		c-4.828064,3.3579712-7.9958496,8.9533691-7.9958496,15.2976074c0,3.2617188,0.8411255,6.3238525,2.3094482,8.9892578
		c2.6282959,2.5429077,6.2073364,4.1149292,10.1592407,4.1149292c8.0618286,0,14.59729-6.5151978,14.59729-14.552063
		C-232.975708,409.649353-239.5111694,403.1341553-247.572998,403.1341553z"/>
	<path id="Fill-5_1_" fill="#FFFFFF" d="M-248.785202,428.8628845c-0.8062744,0.0521545-1.4623718,0.0056763-2.2636719-0.1604004
		c-0.2417755-2.4082947-0.3976288-5.416626,0.8162079-10.6604309c2.2050934,5.7079468,4.6338501,9.8936157,4.6512451,9.916687
		C-245.9943237,428.1556702-247.250412,428.7546387-248.785202,428.8628845 M-252.4832001,428.2546692
		c-6.3092194-2.8656616-7.4673309-9.6586914-5.350296-14.88797
		C-257.7528992,418.541687-256.302948,422.5765381-252.4832001,428.2546692 M-243.9433136,426.9772644
		c1.000824-4.3109436,2.664505-8.4320374,3.6433105-12.7493591c0.1888733-0.8345947,0.3525543-2.1333008,0.0582275-3.5813904
		C-237.3259125,415.1990967-237.6607056,422.2703247-243.9433136,426.9772644 M-256.9462585,411.631897
		c2.8480377-4.3811951,8.2945404-7.9444885,14.2725372-3.5686035c-0.0401306-0.00177-3.8321991,0.1720886-1.0760956,4.2470703
		c1.4897003,2.2021179,1.5844879,3.9688721,0.4061432,7.561615c-0.4253235,1.7713318-0.5538483,2.3060913-0.9337311,4.1299438
		c-1.8188019-4.344635-3.3031921-8.043457-4.4754944-12.773468c1.0306549-0.1511536,2.198349-0.3225403,1.5983429-0.9853821
		c-0.0756226-0.0834045-5.5047302,0.454895-5.5565643,0.4637756c-0.4168091,0.0709534-0.4899445,0.5613403-0.4906616,0.5659485
		c-0.0433044,0.387146,0.0269928,0.3832397,1.2032013,0.3122559c0.3099365,1.6698914,0.4512482,2.4324341,1.2181091,4.869812
		c-0.5534973,2.300415-1.1265106,4.6792603-1.2049713,8.362854c-2.4738464-4.9212646-3.4640198-8.3394165-3.6528931-12.6123962
		c0.35112-0.2132568,0.8201141-0.1295166,1.1304016-0.4470825c0.2116089-0.2168274,0.3145599-0.70578,0.0507812-0.7625732
		C-255.3926697,410.7941284-256.1066284,411.456604-256.9462585,411.631897 M-248.350296,405.1564636
		c-9.3592987,0.7721252-15.4366913,14.8680725-7.1591644,22.2448425
		c8.3893433,7.4757385,18.7540741-2.1836853,18.3962097-11.1462097
		C-237.3912354,409.3066406-243.1476898,404.9066467-248.350296,405.1564636"/>
</g>
<g id="leg-left">
	<g id="Fill-13_2_">
		<path fill="#FFD200" d="M-220.7868347,431.5887146c-0.7752991,1.065033-1.6798401,1.9806519-2.7277222,2.7017822
			c-4.4020081,3.0292358-8.5388184,3.5437622-10.88237,3.5370178c-0.5531769-0.1087341-0.9468231-0.2037354-1.0093231-1.3287354
			c-0.0576172-1.0372009-0.0625-4.9375,1.236908-7.6504517c1.7403564-3.45578,4.8113556-4.2626953,6.4966736-4.4333496
			c2.3144379-0.2331238,4.6572876,0.4602051,5.5771637,1.6499939
			C-220.96875,427.2487793-219.8125,429.8112793-220.7868347,431.5887146z"/>
	</g>
	<path id="Fill-14_4_" d="M-223.5720673,423.8518372c-1.2269897-0.4541931-2.7156219-0.647583-4.2074585-0.4960632
		c-2.9460297,0.2984314-5.4234314,1.8448181-6.9308929,4.2835999c0,0-0.3208313,0.4531555-0.5083313,0.7969055
		s0.6300507,1.0115967,1.049408,0.4120483c1.7403564-3.45578,4.8113556-4.2626953,6.4966736-4.4333496
		c2.3144379-0.2331238,4.6572876,0.4602051,5.5771637,1.6499939c0.1792908,0.2327576,0.5147858,0.2753601,0.7469788,0.095459
		c0.2325592-0.1791992,0.2755127-0.5138245,0.0955048-0.7462463c-0.3301697-0.4272156-0.7910004-0.7998047-1.3395233-1.1099243
		C-222.5925446,424.3042603-223.3941345,423.8924255-223.5720673,423.8518372z"/>
</g>
<g id="sole-right">
	<path id="Fill-8_1_" fill="#FFD200" d="M-264.198822,424.6708069c-0.5378723,0.6603699-0.7167969,1.589325-0.5041504,2.6165771
		c0.542511,2.6208496,5.2033386,7.7039185,8.36026,8.4611206c0.2410583,0.0578613,0.4597473,0.0873108,0.6496887,0.0873108
		c0.4920807,0,0.6752777-0.192688,0.7704163-0.3377991c0.3848572-0.5886841,0.1665192-1.8689575-0.1388092-2.5665588
		c-0.8740845-1.9966736-3.6440277-7.2312622-5.0438995-8.3078308c-0.7047424-0.5422058-1.4634399-0.8285522-2.194458-0.8285522
		C-263.0641479,423.7950745-263.7390442,424.1062622-264.198822,424.6708069"/>
	<path id="Fill-18_1_" d="M-255.6930237,436.9003296L-255.6930237,436.9003296c-0.2733612,0-0.5755005-0.039032-0.8982239-0.116394
		c-3.6017761-0.8643799-8.5313416-6.2696533-9.1547852-9.2807922c-0.2786865-1.3466187-0.0227356-2.5914001,0.7207031-3.5040588
		c0.6571655-0.8061829,1.6505432-1.2685242,2.7255554-1.2685242c0.9678345,0,1.9512634,0.3629761,2.8441467,1.0495911
		c1.7535095,1.348053,4.7279358,7.2578735,5.3698273,8.7240906c0.266983,0.6099548,0.7970428,2.440918,0.0543213,3.576416
		C-254.2760925,436.4546509-254.7631989,436.9003296-255.6930237,436.9003296L-255.6930237,436.9003296z M-262.2997742,423.7950745
		c-0.7643738,0-1.43927,0.3111877-1.8990479,0.8757324c-0.5378723,0.6603699-0.7167969,1.589325-0.5041504,2.6165771
		c0.542511,2.6208496,5.2033386,7.7039185,8.36026,8.4611206c0.2410583,0.0578613,0.4597473,0.0873108,0.6496887,0.0873108
		c0.4920807,0,0.6752777-0.192688,0.7704163-0.3377991c0.3848572-0.5886841,0.1665192-1.8689575-0.1388092-2.5665588
		c-0.8740845-1.9966736-3.6440277-7.2312622-5.0438995-8.3078308
		C-260.8100586,424.0814209-261.5687561,423.7950745-262.2997742,423.7950745L-262.2997742,423.7950745z"/>
</g>
<g id="sole-left">
	<path id="Fill-6_1_" fill="#FFD200" d="M-235.1872253,430.4170532c-0.0056763-0.0223389-0.0106506-0.0439758-0.0163269-0.0667114
		c-0.050766-0.20224-0.1068573-0.4105225-0.1700592-0.6269836c-0.5272217-1.8976746-3.0344391-5.6717529-4.9494629-5.6717529
		c-0.2943268,0-0.5687561,0.0876465-0.8389435,0.2675476c-1.6768036,1.1177368-1.3384552,3.1396179-0.6301727,6.0964966
		c0.1750336,0.7313232,0.3560944,1.4878235,0.4647369,2.1939697c0.1416626,0.9186707,0.1072235,1.9452209,0.0742035,2.9373474
		c-0.0511322,1.5407104-0.1040344,3.1343079,0.5605927,3.8208923c0.2907715,0.3005676,0.7437744,0.4467468,1.3853149,0.4467468
		c0.1856842,0,0.3603668-0.0138245,0.5293579-0.0351257c0.0514832-0.0063782,0.1001129-0.0159607,0.1498108-0.0241089
		c0.1178741-0.019165,0.231842-0.0426025,0.3415527-0.0709839c0.0486298-0.0127869,0.0972748-0.0259094,0.1444855-0.0404358
		c0.1143188-0.03479,0.2236786-0.0748901,0.3287659-0.1192322c0.0308838-0.0127869,0.0635529-0.0241394,0.0937195-0.0376282
		c0.1349182-0.0613708,0.263443-0.1291504,0.38414-0.2036743c0.0117188-0.0074463,0.0223694-0.0159607,0.0340881-0.023407
		c0.1068726-0.0681458,0.2077026-0.1405334,0.3031921-0.2168274c0.0280457-0.0223389,0.0546875-0.0454102,0.082016-0.0684814
		c0.0784607-0.0663452,0.1533661-0.1351929,0.2243805-0.2058105c0.0237885-0.0237732,0.0482788-0.0475464,0.0713654-0.0716553
		c0.0795135-0.0837402,0.1547852-0.1696167,0.2250824-0.256897c0.0081635-0.0103149,0.017395-0.0198975,0.0252075-0.0301819
		c0.0784607-0.0993347,0.150528-0.20047,0.2176361-0.3019714c0.015976-0.0237732,0.0298157-0.0478821,0.0447235-0.0713196
		c0.0475769-0.0752258,0.0930176-0.1504517,0.1349182-0.2249756c0.0202332-0.0358276,0.0394135-0.0709534,0.0582275-0.1064453
		c0.0326538-0.0617371,0.0635529-0.1227722,0.0926666-0.1834412c0.0180969-0.0379639,0.0372772-0.0762939,0.054306-0.1138916
		c0.0241547-0.052887,0.045105-0.1036377,0.0664062-0.1547241c0.0447235-0.1068115,0.0848389-0.2100525,0.1182251-0.3051453
		c0.002121-0.0053406,0.0042572-0.0110168,0.0060272-0.0159912c0.0234375-0.0681152,0.0447388-0.1326904,0.0632019-0.1926575
		c0.0805817-0.2622375,0.117157-0.4460449,0.1224823-0.4769287c0.0053253-0.0304871,0.0127716-0.062439,0.0223694-0.0915222
		c0.5321808-1.6837158,0.7459106-3.099884,0.3124237-5.1845703
		C-235.0949097,430.802063-235.1389313,430.6118774-235.1872253,430.4170532"/>
	<path id="Fill-14_3_" d="M-234.7104187,427.6393738c-1.1069794-2.1627197-3.2524261-5.0071106-5.6126556-5.0071106
		c-0.5755005,0-1.1229553,0.1703186-1.6263885,0.5059814c-2.6268616,1.7500916-1.8813019,4.8619995-1.2241516,7.6073914
		c0.1764526,0.7362976,0.3429565,1.4317932,0.4427185,2.0800781c0.1210785,0.7877502,0.0891266,1.7468567,0.0585938,2.6740723
		c-0.0610657,1.8366394-0.1242676,3.7353821,0.9589233,4.8548889c0.5644989,0.5833435,1.3739624,0.879303,2.4060364,0.879303
		c2.1344452,0,3.5144348-1.1113586,4.3416595-2.3536682c0.309433-0.6315308,0.5687561-1.0527954,0.5687561-1.0527954
		c0.1966858-0.4605713,0.3280487-0.90271,0.3958588-1.2734985c0.6898193-2.197876,0.9056854-4.0941467-0.0067444-7.219574
		c-0.0401154-0.1444092-0.0951538-0.3086853-0.1615295-0.4861145
		C-234.4375,428.2175293-234.7104187,427.6393738-234.7104187,427.6393738z M-235.368988,436.1711426
		c-0.0095978,0.0290833-0.0170441,0.0610352-0.0223694,0.0915222c-0.0259247,0.1447754-0.6695862,3.5519409-3.9159851,3.5519409
		c-0.6415405,0-1.0945435-0.1461792-1.3853149-0.4467468c-0.6646271-0.6865845-0.6117249-2.2801819-0.5605927-3.8208923
		c0.03302-0.9921265,0.0674591-2.0186768-0.0742035-2.9373474c-0.1086426-0.7061462-0.2897034-1.4626465-0.4647369-2.1939697
		c-0.7082825-2.9568787-1.0466309-4.9787598,0.6301727-6.0964966c0.2701874-0.1799011,0.5446167-0.2675476,0.8389435-0.2675476
		c1.9150238,0,4.4222412,3.7740784,4.9494629,5.6717529C-234.5495911,432.5471497-234.7359772,434.1677246-235.368988,436.1711426
		L-235.368988,436.1711426z"/>
</g>
<g id="ear-right">
	<path id="Fill-14_2_" d="M-250.953125,400.6237793c0.703125-1.390625,0.734375-2.1875,0.78125-2.953125
		s-0.5-0.953125-0.828125-0.734375s-0.9528809,0.6299744-1.9530029,1.4009094
		c-1.0001221,0.7709656-3.6662903,2.4327393-4.5762329,2.6353455c-0.4214172,0.0933228-0.7391663,0.3761292-0.8513489,0.7558289
		c-0.112915,0.3842773,0.0085144,0.8047791,0.3241272,1.1244812c0.2893677,0.2916565,0.8914795,0.6564331,2.0960999,0.6564331
		c0.647934,0,1.4730225-0.1078491,2.514679-0.3867493C-252.5476074,402.8087769-251.65625,402.0144043-250.953125,400.6237793z
		 M-253.7314758,402.0963135L-253.7314758,402.0963135c-2.3822632,0.6362305-3.2620239,0.2264099-3.4778748,0.0805664
		c-0.1178589-0.0794983-0.1494751-0.1390991-0.1544495-0.1373291c0.0003662,0,0.015625-0.0170288,0.0653381-0.0280457
		c0.7991638-0.1773987,2.3691101-1.0066528,3.7611847-1.9743042"/>
	<path id="Fill-11_2_" fill="#FF8800" d="M-257.2984619,402.0115051c-0.0497131,0.0110168-0.0649719,0.0280457-0.0653381,0.0280457
		c0.0049744-0.00177,0.0365906,0.0578308,0.1544495,0.1373291c0.2158508,0.1458435,1.0956116,0.5556641,3.4778748-0.0805664
		c1.2627258-0.5350342,2.2506714-2.3071289,2.497406-3.108551c0.2920837-0.9487-0.1096802-0.5202332-0.5784302-0.1452332
		s-1.7247772,1.1946716-1.7247772,1.1946716C-254.9293518,401.0048523-256.4992981,401.8341064-257.2984619,402.0115051"/>
</g>
<g id="hand-right">
	<path id="Fill-9_1_" fill="#FFD200" d="M-256.8901672,407.6630249c0.1629333,0.8679504,0.7391663,1.0503235,1.1939545,1.0503235
		c0.5978699,0,1.2749176-0.3197021,1.8110046-0.8558655c0.5982208-0.5979004,0.8666229-1.3867188,0.717865-2.1109314
		c-0.0923004-0.449585-0.3379822-0.7941284-0.6571503-0.9215088c-0.0521851-0.0209351-0.1239014-0.0319519-0.2077026-0.0319519
		c-0.5733643,0-1.620697,0.5159302-2.3130188,1.349823C-256.5979919,406.4477234-257.0055542,407.0502319-256.8901672,407.6630249"
		/>
	<path id="Fill-12_1_" d="M-255.6962128,409.7778625L-255.6962128,409.7778625
		c-1.1602325,0-2.0190582-0.7352295-2.2412872-1.9189453c-0.1445007-0.7707214,0.1299133-1.6216125,0.772522-2.395874
		c0.8346863-1.0049133,2.1521912-1.7344666,3.132782-1.7344666c0.2208405,0,0.4239197,0.0361938,0.6031952,0.1078796
		c0.6521912,0.2608032,1.1399994,0.8948975,1.3047333,1.6961365c0.2211914,1.0755005-0.1555023,2.2262573-1.0079193,3.0778503
		C-253.8742065,409.352417-254.8089905,409.7778625-255.6962128,409.7778625L-255.6962128,409.7778625z M-254.032196,404.7930908
		c-0.5733643,0-1.620697,0.5159302-2.3130188,1.349823c-0.2527771,0.3048096-0.6603394,0.9073181-0.5449524,1.5201111
		c0.1629333,0.8679504,0.7391663,1.0503235,1.1939545,1.0503235c0.5978699,0,1.2749176-0.3197021,1.8110046-0.8558655
		c0.5982208-0.5979004,0.8666229-1.3867188,0.717865-2.1109314c-0.0923004-0.449585-0.3379822-0.7941284-0.6571503-0.9215088
		C-253.8766785,404.8041077-253.9483948,404.7930908-254.032196,404.7930908L-254.032196,404.7930908z"/>
</g>
<g id="face">
	<path id="Fill-13_7_" fill="#FFD200" d="M-223.8541718,394.5716858c0,0-0.6458282-0.8333435-2.4512787-2.0428772
		c-2.3655548-1.5140991-5.0811768-2.361084-8.0474548-2.450531c-7.3714752-0.223175-13.8319397,2.9118042-17.2853241,8.3859253
		c-0.9440155,1.4970703-1.2702942,2.8575134-0.9425964,3.9351501c0.2385712,0.7849121,1.2471161,1.7984009,1.6433258,1.9744263
		c0.6710052,0.2987671,4.5095215-1.2144775,5.75-3.46875c0.0706482-0.1274109,0.1899414-0.2210693,0.3308868-0.2579956
		c0.1416626-0.0368958,0.2911224-0.0148926,0.4150238,0.0614014c2.912674,1.7912292,5.9103394,1.4465942,9.0978394,0.7278442
		s6.03125-1,8.875-3.09375S-223.8450012,394.5810852-223.8541718,394.5716858z"/>
	<path id="Fill-13_5_" d="M-223.0027466,393.9118347c-0.0770569-0.0994263-0.8074799-1.0079346-2.7031708-2.2779236
		c-2.5872955-1.656311-5.4792938-2.5377808-8.6145172-2.6322937c-0.2568817-0.007782-0.5131836-0.0116577-0.7679749-0.0116577l0,0
		c-7.417923,0-13.945343,3.3269348-17.4608459,8.8995056c-1.1161804,1.7700806-1.4834137,3.4378967-1.0621338,4.8232727
		c0.3438721,1.1312866,1.1426544,1.8348083,1.775528,2.1159363c0.1977386,0.0880432,0.4224243,0.1309814,0.6861115,0.1309814
		c1.3315277,0,4.9857178-1.3352966,6.5796661-3.5643921c1.2127686,0.6428833,2.5368958,0.9562988,4.0309448,0.9562988
		c1.8782806,0,5.0078888-0.9152832,5.5078888-1.1027832s0.3206787-1.2140503-0.4375-0.96875
		c-1.6067657,0.5137939-3.3295593,0.9943848-5.0703888,0.9943848c-1.3356323,0-2.6683044-0.2857056-3.9328156-1.0633545
		c-0.0845947-0.0520935-0.1811066-0.0788574-0.2789307-0.0788574c-0.0454407,0-0.0911713,0.0057678-0.1360931,0.0174866
		c-0.1409454,0.0368958-0.2602386,0.1305847-0.3309021,0.2579651c-1.1337891,2.0604248-4.7977142,3.4748535-5.9318695,3.4748535
		c-0.10672,0-0.1911163-0.0125427-0.2488251-0.0382385c-0.396225-0.1759949-0.9436646-0.6600037-1.182251-1.4449158
		c-0.3276978-1.0776367-0.0014191-2.4380798,0.9425964-3.9351501c3.3380737-5.2913513,9.4854889-8.3970642,16.5498199-8.3970642
		c0.243988,0,0.4894104,0.0036926,0.7355194,0.0111694c2.9662628,0.0894165,5.6818848,0.9364014,8.0474396,2.4505005
		c1.8054504,1.2095337,2.4512939,2.0428772,2.4512939,2.0428772
		C-223.25,395.1862793-222.4742584,394.5436707-223.0027466,393.9118347z"/>
</g>
<g id="eye-left">
	<path id="Fill-17_1_" d="M-235.8752747,395.1052856c0,0.5879822-0.4767914,1.0645142-1.0650787,1.0645142
		s-1.065094-0.476532-1.065094-1.0645142c0-0.5879517,0.4768066-1.0645142,1.065094-1.0645142
		S-235.8752747,394.517334-235.8752747,395.1052856"/>
</g>
<g id="eye-right">
	<path id="Fill-16_1_" d="M-248.183075,398.0621643c0,0.5879517-0.4768066,1.0645142-1.065094,1.0645142
		c-0.5879211,0-1.065094-0.4765625-1.065094-1.0645142c0-0.5879822,0.4771729-1.0645142,1.065094-1.0645142
		C-248.6598816,396.9976501-248.183075,397.4741821-248.183075,398.0621643"/>
</g>
<g id="nose">
	<path id="Fill-15_1_" d="M-245.697876,397.5888062c-0.8467407,0.6347961-0.5914764,1.4197083,0.3550415,1.5378723
		c0.9468536,0.1181641,1.0207062,0.1809692,1.8937225-0.4733582c0.9465027-0.7096863,1.065094-1.8927002,0-1.7742004
		C-244.5142059,396.9976501-245.2242584,397.2339783-245.697876,397.5888062"/>
</g>
<g id="hand-left_1_">
	<path id="Fill-13_3_" fill="#FFD200" d="M-251.6382294,398.4642029"/>
	<path id="Fill-13_4_" fill="#FFD200" stroke="#FFD200" stroke-miterlimit="10" d="M-222.890625,407.5456543
		c-1.859375-2.625-4.4375-3.9375-6.907959-4.6122742c-4.08284-1.61026-9.6120605-0.8214417-12.5886383,1.7969055
		c-1.0207062,0.8977356-1.4641418,1.7649841-1.2482758,2.4416504c0.2218933,0.6954956,1.1272125,1.2426453,2.2537231,1.3608093
		c0.8467407,0.0879822,2.1351471-0.1969299,3.5002441-0.4999695c2.1035461-0.4666138,4.4886322-0.9956665,6.6113586-0.5563965
		c3.4402313,0.7114563,5.7227173,2.7741394,9.1771545,5.8963623l0.4210663,0.3804016
		C-220.0001526,414.6481323-221.03125,410.1706543-222.890625,407.5456543z"/>
	<path id="Fill-13_1_" d="M-221.6719513,413.7531128l-0.4210663-0.3803711
		c-3.4544373-3.1222229-5.7369232-5.184906-9.1771545-5.8963623c-0.5602264-0.1159363-1.1385193-0.1644287-1.7252808-0.1643982
		c-1.6365662,0.0000305-3.3377075,0.3773193-4.8860931,0.7207947c-1.1938629,0.2650146-2.328949,0.5161743-3.1613617,0.5161743
		c-0.1193848,0-0.232666-0.0051575-0.3388672-0.0162048c-1.1265106-0.1181641-2.0318451-0.6653137-2.2537231-1.3608093
		c-0.2158661-0.6766663,0.2275696-1.5438843,1.2482758-2.4416504c1.9344788-1.7016602,4.9463501-2.6305847,7.9394379-2.6304321
		c1.6123505,0.0000916,3.2198029,0.2697754,4.6492004,0.8335266c0.736084,0.2528992,1.0482178-0.7607727,0.3504944-1.0195618
		c-1.4967346-0.5830078-3.2243042-0.8910522-4.999649-0.8911438h0.0000153l0,0h-0.0000153
		c-3.353241-0.0001831-6.5872345,1.0834961-8.6509399,2.8988342c-1.7454376,1.5351868-1.8134003,2.7929688-1.5630493,3.5777893
		c0.3554382,1.1140442,1.5987701,1.9401855,3.1675873,2.1047363c0.1421051,0.0147705,0.2926025,0.0220947,0.4512329,0.0220947
		c0.9542084,0,2.1396942-0.2631836,3.3947906-0.5417786c1.5406952-0.3417664,3.1340027-0.6951904,4.6526794-0.6951904
		c0.5521393,0,1.0450745,0.0464478,1.5069733,0.1420288c3.1539764,0.6522827,5.2314148,2.5299072,8.673172,5.640686
		l0.4212646,0.3805542C-221.796875,415.0300293-221.171875,414.2331543-221.6719513,413.7531128z"/>
</g>
<g id="ear-left">
	<path id="Fill-14_1_" d="M-219.1941986,398.9286804c1.1865082,0.3977661,2.1859131,0.526947,2.9719543,0.526947h0.0007019
		c0.7054443,0,1.3906555-0.0986633,2.0378723-0.2923889c4.1545563-1.2458496,5.8927765-4.315918,5.8629608-5.6071777
		c-0.0117188-0.5088501-0.2662659-0.8746643-0.6798859-0.9779358l0,0c-0.2574005-0.0645752-0.8705292-0.1043091-3.1256714-0.1043091
		c-0.782486,0-1.6725464,0.0042419-2.6194153,0.0092163c-1.0732574,0.0053101-2.2189331,0.0109863-3.3631897,0.0109863
		c-1.9604797,0-4.7087555-0.0152588-6.5666351-0.1383667c-0.7380066-0.0806274-1.2932434-0.0131226-1.6299438,0.1731567
		c-0.1547852,0.1022034-0.2669678,0.2388-0.3301697,0.4137268c-0.0788269,0.2182312-0.319519,0.8821411,1.4254456,2.3348389
		l0.1274567,0.1085815c1.5781097,1.3444824,3.0099335,2.2592773,4.2830658,2.8791809
		C-219.5625,398.8737793-219.1941986,398.9286804-219.1941986,398.9286804z M-209.6669769,394.5077515
		c-0.6269836,1.2465515-2.2235565,2.8564453-4.8227234,3.6356812c-0.5478058,0.1642761-1.1300659,0.2476501-1.731842,0.2476501
		h-0.0007019c-1.6846161-0.0003357-4.4694672-0.6624756-8.1692352-3.8152161l-0.1370392-0.1160278
		c-0.5438995-0.453125-0.8843842-0.8501892-1.0231934-1.0769348c0.0937195-0.0078125,0.2385712-0.0078125,0.4026031,0.0053101
		c1.8834229,0.1525879,4.9199982,0.1703491,7.0402374,0.1703491c1.1456757,0,2.2938385-0.0057068,3.368515-0.0110168
		c0.9447327-0.0049744,1.8330231-0.0092163,2.61409-0.0092163c1.4676819,0,2.3872223,0.0180969,2.7408295,0.0539246
		C-209.385437,393.7359619-209.4330139,394.0418396-209.6669769,394.5077515L-209.6669769,394.5077515z"/>
	<path id="Fill-7_1_" fill="#FF8800" d="M-218.1088715,393.5585632c-2.1202393,0-5.1568146-0.0177612-7.0402374-0.1703491
		c-0.164032-0.0131226-0.3088837-0.0131226-0.4026031-0.0053101c0.1388092,0.2267456,0.4792938,0.6238098,1.0231934,1.0769348
		l0.1370392,0.1160278c3.6997681,3.1527405,6.4846191,3.8148804,8.1692352,3.8152161h0.0007019
		c0.6017761,0,1.1840363-0.083374,1.731842-0.2476501c2.5991669-0.7792358,4.1957397-2.3891296,4.8227234-3.6356812
		c0.233963-0.4659119,0.2815399-0.7717896,0.2815399-0.9154968c-0.3536072-0.0358276-1.2731476-0.0539246-2.7408295-0.0539246
		c-0.7810669,0-1.6693573,0.0042419-2.61409,0.0092163C-215.815033,393.5528564-216.9631958,393.5585632-218.1088715,393.5585632"/>
</g>
</svg>
